<svg width="720" height="1080" viewBox="0 0 720 1080" xmlns="http://www.w3.org/2000/svg">
<defs>
<filter id="lightningGlow" x="-100%" y="-100%" width="300%" height="300%"><feGaussianBlur stdDeviation="12" result="blur"/><feMerge><feMergeNode in="blur"/><feMergeNode in="SourceGraphic"/></feMerge></filter>
<linearGradient id="boltGold" x1="0" y1="0" x2="1" y2="1"><stop offset="0%" stop-color="#ffffff"/><stop offset="35%" stop-color="#fff7c2"/><stop offset="70%" stop-color="#facc15"/><stop offset="100%" stop-color="#ca8a04"/></linearGradient>
</defs>
<g fill="none" stroke="url(#boltGold)" stroke-linecap="round" stroke-linejoin="round" filter="url(#lightningGlow)">
<path d="M386 22 L348 176 L392 244 L312 385 L354 455 L260 624 L304 684 L210 856 L248 842 L182 1040" stroke-width="13"/>
<path d="M349 175 L271 259 L220 350" stroke-width="6"/>
<path d="M313 384 L408 443 L468 548" stroke-width="7"/>
<path d="M261 622 L170 694 L112 810" stroke-width="5"/>
<path d="M303 683 L394 748 L448 850" stroke-width="5"/>
<path d="M211 855 L132 914 L84 1002" stroke-width="4"/>
</g></svg>